<?xml version="1.0" encoding="UTF-8"?>
<svg width="512px" height="512px" viewBox="0 0 512 512" version="1.1" xmlns="http://www.w3.org/2000/svg" xmlns:xlink="http://www.w3.org/1999/xlink">
    <!-- Generator: Sketch 54.1 (76490) - https://sketchapp.com -->
    <title>Group</title>
    <desc>Created with Sketch.</desc>
    <defs>
        <linearGradient x1="50%" y1="-75%" x2="50%" y2="185.475%" id="linearGradient-1">
            <stop stop-color="#6DC7FF" offset="0%"></stop>
            <stop stop-color="#E6ABFF" offset="100%"></stop>
        </linearGradient>
        <linearGradient x1="50%" y1="-66.665%" x2="50%" y2="169.035%" id="linearGradient-2">
            <stop stop-color="#6DC7FF" offset="0%"></stop>
            <stop stop-color="#E6ABFF" offset="100%"></stop>
        </linearGradient>
        <linearGradient x1="50%" y1="-75%" x2="50%" y2="177.215%" id="linearGradient-3">
            <stop stop-color="#6DC7FF" offset="0%"></stop>
            <stop stop-color="#E6ABFF" offset="100%"></stop>
        </linearGradient>
        <linearGradient x1="50%" y1="-8.33333333%" x2="50%" y2="381.944167%" id="linearGradient-4">
            <stop stop-color="#1A6DFF" offset="0%"></stop>
            <stop stop-color="#C822FF" offset="100%"></stop>
        </linearGradient>
        <linearGradient x1="50%" y1="-8.33333333%" x2="50%" y2="381.944167%" id="linearGradient-5">
            <stop stop-color="#1A6DFF" offset="0%"></stop>
            <stop stop-color="#C822FF" offset="100%"></stop>
        </linearGradient>
        <linearGradient x1="50%" y1="-141.666667%" x2="50%" y2="248.610833%" id="linearGradient-6">
            <stop stop-color="#1A6DFF" offset="0%"></stop>
            <stop stop-color="#C822FF" offset="100%"></stop>
        </linearGradient>
        <linearGradient x1="50%" y1="-141.666667%" x2="50%" y2="248.610833%" id="linearGradient-7">
            <stop stop-color="#1A6DFF" offset="0%"></stop>
            <stop stop-color="#C822FF" offset="100%"></stop>
        </linearGradient>
        <linearGradient x1="50%" y1="-275%" x2="50%" y2="115.2775%" id="linearGradient-8">
            <stop stop-color="#1A6DFF" offset="0%"></stop>
            <stop stop-color="#C822FF" offset="100%"></stop>
        </linearGradient>
        <linearGradient x1="50%" y1="-275%" x2="50%" y2="115.2775%" id="linearGradient-9">
            <stop stop-color="#1A6DFF" offset="0%"></stop>
            <stop stop-color="#C822FF" offset="100%"></stop>
        </linearGradient>
    </defs>
    <g id="Page-1" stroke="none" stroke-width="1" fill="none" fill-rule="evenodd">
        <g id="Group">
            <rect id="Rectangle" fill="#FFFFFF" x="0" y="0" width="512" height="512"></rect>
            <g id="icons8-numbered_list" transform="translate(17.148325, 17.964912)" fill-rule="nonzero">
                <rect id="Rectangle" fill="url(#linearGradient-1)" x="129.020734" y="53.8947368" width="311.936204" height="21.23126"></rect>
                <rect id="Rectangle" fill="url(#linearGradient-2)" x="129.020734" y="228.644338" width="311.936204" height="21.23126"></rect>
                <rect id="Rectangle" fill="url(#linearGradient-3)" x="129.020734" y="400.944179" width="311.936204" height="21.23126"></rect>
                <path d="M450.930964,0 L119.863295,0 C104.652574,0 92.2743222,14.3802318 92.2743222,32.0510367 L92.2743222,96.15311 C92.2743222,113.823915 104.652574,128.204147 119.863295,128.204147 L450.930964,128.204147 C466.141684,128.204147 478.519936,113.823915 478.519936,96.15311 L478.519936,32.0510367 C478.519936,14.3802318 466.141684,0 450.930964,0 Z M460.127288,96.15311 C460.127288,102.039817 455.998138,106.836789 450.930964,106.836789 L119.863295,106.836789 C114.79612,106.836789 110.66697,102.039817 110.66697,96.15311 L110.66697,32.0510367 C110.66697,26.1643296 114.79612,21.3673578 119.863295,21.3673578 L450.930964,21.3673578 C455.998138,21.3673578 460.127288,26.1643296 460.127288,32.0510367 L460.127288,96.15311 Z" id="Shape" fill="url(#linearGradient-4)"></path>
                <polygon id="Path" fill="url(#linearGradient-5)" points="35.9298246 0 0 0 0 21.3673578 17.9649123 21.3673578 17.9649123 106.836789 0 106.836789 0 128.204147 53.8947368 128.204147 53.8947368 106.836789 35.9298246 106.836789"></polygon>
                <path d="M450.930964,175.566188 L119.863295,175.566188 C104.652574,175.566188 92.2743222,189.94642 92.2743222,207.617225 L92.2743222,271.719298 C92.2743222,289.390103 104.652574,303.770335 119.863295,303.770335 L450.930964,303.770335 C466.141684,303.770335 478.519936,289.390103 478.519936,271.719298 L478.519936,207.617225 C478.519936,189.94642 466.141684,175.566188 450.930964,175.566188 Z M460.127288,271.719298 C460.127288,277.606005 455.998138,282.402977 450.930964,282.402977 L119.863295,282.402977 C114.79612,282.402977 110.66697,277.606005 110.66697,271.719298 L110.66697,207.617225 C110.66697,201.730518 114.79612,196.933546 119.863295,196.933546 L450.930964,196.933546 C455.998138,196.933546 460.127288,201.730518 460.127288,207.617225 L460.127288,271.719298 Z" id="Shape" fill="url(#linearGradient-6)"></path>
                <path d="M35.9298246,175.566188 L0,175.566188 L0,196.933546 L35.9298246,196.933546 L35.9298246,234.326422 L7.18596491,259.967251 C2.68575439,263.973631 0,270.373155 0,277.061138 L0,282.402977 L0,293.086656 L0,303.770335 L53.8947368,303.770335 L53.8947368,282.402977 L17.9649123,282.402977 L17.9649123,277.061138 L46.7087719,251.420308 C51.2089825,247.413929 53.8947368,241.014405 53.8947368,234.326422 L53.8947368,196.933546 C53.8947368,185.149448 45.8374737,175.566188 35.9298246,175.566188 Z" id="Path" fill="url(#linearGradient-7)"></path>
                <path d="M450.930964,347.866029 L119.863295,347.866029 C104.652574,347.866029 92.2743222,362.24626 92.2743222,379.917065 L92.2743222,444.019139 C92.2743222,461.689944 104.652574,476.070175 119.863295,476.070175 L450.930964,476.070175 C466.141684,476.070175 478.519936,461.689944 478.519936,444.019139 L478.519936,379.917065 C478.519936,362.24626 466.141684,347.866029 450.930964,347.866029 Z M460.127288,444.019139 C460.127288,449.905846 455.998138,454.702818 450.930964,454.702818 L119.863295,454.702818 C114.79612,454.702818 110.66697,449.905846 110.66697,444.019139 L110.66697,379.917065 C110.66697,374.030358 114.79612,369.233386 119.863295,369.233386 L450.930964,369.233386 C455.998138,369.233386 460.127288,374.030358 460.127288,379.917065 L460.127288,444.019139 Z" id="Shape" fill="url(#linearGradient-8)"></path>
                <path d="M35.9298246,347.866029 L0,347.866029 L0,369.233386 L35.9298246,369.233386 L35.9298246,401.284423 L0,401.284423 L0,422.651781 L35.9298246,422.651781 L35.9298246,454.702818 L0,454.702818 L0,476.070175 L35.9298246,476.070175 C45.8374737,476.070175 53.8947368,466.486915 53.8947368,454.702818 L53.8947368,369.233386 C53.8947368,357.449289 45.8374737,347.866029 35.9298246,347.866029 Z" id="Path" fill="url(#linearGradient-9)"></path>
            </g>
        </g>
    </g>
</svg>